HIERARCHY
ROOT Hips
{
	OFFSET 0.00 0.00 0.00
	CHANNELS 6 Xposition Yposition Zposition Zrotation Yrotation Xrotation
	JOINT Spine
	{
		OFFSET 0.00000 0.00000 4.45283
		CHANNELS 3 Zrotation Yrotation Xrotation
		JOINT Spine1
		{
			OFFSET 0.00000 -0.77323 4.38518
			CHANNELS 3 Zrotation Yrotation Xrotation
			JOINT Spine2
			{
				OFFSET 0.00000 -0.38809 4.43588
				CHANNELS 3 Zrotation Yrotation Xrotation
				JOINT Spine3
				{
					OFFSET 0.00000 0.00000 4.45283
					CHANNELS 3 Zrotation Yrotation Xrotation
					JOINT Neck
					{
						OFFSET 0.00000 0.57251 5.72507
						CHANNELS 3 Zrotation Yrotation Xrotation
						JOINT Neck1
						{
							OFFSET 0.00000 0.14369 1.64240
							CHANNELS 3 Zrotation Yrotation Xrotation
							JOINT Head
							{
								OFFSET 0.00000 0.28629 1.62363
								CHANNELS 3 Zrotation Yrotation Xrotation
								End Site
								{
									OFFSET 0.00000 0.00000 3.54915
								}
							}
						}
					}
					JOINT RightShoulder
					{
						OFFSET 0.00000 0.00000 4.00754
						CHANNELS 3 Zrotation Yrotation Xrotation
						JOINT RightArm
						{
							OFFSET 7.25811 0.00000 0.00000
							CHANNELS 3 Zrotation Yrotation Xrotation
							JOINT RightForeArm
							{
								OFFSET 11.28124 0.00000 0.00000
								CHANNELS 3 Zrotation Yrotation Xrotation
								JOINT RightHand
								{
									OFFSET 8.65626 0.00000 0.00000
									CHANNELS 3 Zrotation Yrotation Xrotation
									End Site
									{
										OFFSET 4.37860 -0.04210 0.00000
									}
								}
							}
						}
					}
					JOINT LeftShoulder
					{
						OFFSET 0.00000 0.00000 4.00754
						CHANNELS 3 Zrotation Yrotation Xrotation
						JOINT LeftArm
						{
							OFFSET -7.25811 0.00000 0.00000
							CHANNELS 3 Zrotation Yrotation Xrotation
							JOINT LeftForeArm
							{
								OFFSET -11.28124 0.00000 0.00000
								CHANNELS 3 Zrotation Yrotation Xrotation
								JOINT LeftHand
								{
									OFFSET -8.65626 0.00000 0.00000
									CHANNELS 3 Zrotation Yrotation Xrotation
									End Site
									{
										OFFSET -4.37860 -0.04210 0.00000
									}
								}
							}
						}
					}
				}
			}
		}
	}
	JOINT RightUpLeg
	{
		OFFSET 3.94454 0.00000 0.00000
		CHANNELS 3 Zrotation Yrotation Xrotation
		JOINT RightLeg
		{
			OFFSET 0.00000 0.00000 -16.59787
			CHANNELS 3 Zrotation Yrotation Xrotation
			JOINT RightFoot
			{
				OFFSET 0.00000 0.00000 -15.90528
				CHANNELS 3 Zrotation Yrotation Xrotation
				JOINT RightToeBase
				{
					OFFSET 0.00000 4.84053 -1.23599
					CHANNELS 3 Zrotation Yrotation Xrotation
					End Site
					{
						OFFSET 0.00000 3.52639 0.00000
					}
				}
			}
		}
	}
	JOINT LeftUpLeg
	{
		OFFSET -3.94454 0.00000 0.00000
		CHANNELS 3 Zrotation Yrotation Xrotation
		JOINT LeftLeg
		{
			OFFSET 0.00000 0.00000 -16.59787
			CHANNELS 3 Zrotation Yrotation Xrotation
			JOINT LeftFoot
			{
				OFFSET 0.00000 0.00000 -15.90528
				CHANNELS 3 Zrotation Yrotation Xrotation
				JOINT LeftToeBase
				{
					OFFSET 0.00000 4.84053 -1.23599
					CHANNELS 3 Zrotation Yrotation Xrotation
					End Site
					{
						OFFSET 0.00000 3.43881 0.00000
					}
				}
			}
		}
	}
}
MOTION
Frames: 11
Frame Time: 0.033333
 9.5267 -0.7495 36.2768 88.2354 -1.0699 0.6448 1.0586 -0.3574 -0.4139 1.0857 -0.2637 -0.4131 1.1041 0.3011 0.0601 1.1041 0.3011 0.0601 -4.5608 -2.1735 9.8497 -4.6308 0.0432 2.1908 -4.9055 4.4373 -8.4104 -4.0953 -2.8669 0.0000 8.5847 21.0342 41.0480 36.2543 0.0000 -17.8641 -16.3589 3.5283 -1.0349 -1.4885 -1.5525 0.0000 -11.6097 -15.2772 27.9782 -31.6388 0.0000 -19.0599 16.2447 -1.5191 -0.4426 -16.5056 0.3231 -2.1834 0.0000 -0.0000 -7.5405 -12.1283 12.6800 0.4319 0.0000 0.0000 -2.0065 13.3501 -1.8903 -3.3171 0.0000 0.0000 -5.0531 12.3552 0.5089 4.1906 -0.0000 0.0000 -6.8240
 9.4809 -0.7505 36.2740 88.2366 -1.0764 0.6430 1.0583 -0.3432 -0.3856 1.0842 -0.2497 -0.3848 1.1014 0.2900 0.0582 1.1014 0.2900 0.0582 -4.5397 -2.1935 9.8621 -4.6068 0.0286 2.2012 -4.8827 4.4233 -8.4022 -4.1061 -2.8667 0.0000 8.6256 21.0281 41.0933 36.3059 0.0000 -17.8774 -16.4073 3.5755 -1.0520 -1.4954 -1.5375 0.0000 -11.5575 -15.2538 28.0320 -31.7767 -0.0000 -19.0129 16.2853 -1.6160 -0.4720 -16.5219 0.3009 -2.2705 -0.0000 0.0000 -7.5144 -12.1008 12.7133 0.4874 0.0000 -0.0000 -2.0352 13.3842 -1.8667 -3.3874 -0.0000 0.0000 -5.0663 12.3168 0.4888 4.2627 -0.0000 0.0000 -6.8279
 9.4309 -0.7515 36.2709 88.2352 -1.0846 0.6434 1.0640 -0.3296 -0.3463 1.0887 -0.2357 -0.3454 1.1047 0.2914 0.0423 1.1047 0.2914 0.0423 -4.5030 -2.1991 9.8725 -4.5664 0.0087 2.2141 -4.8413 4.3727 -8.3844 -4.0838 -2.8555 0.0000 8.5522 20.9635 40.9971 36.3503 -0.0000 -17.8314 -16.3997 3.4996 -1.0292 -1.5026 -1.5051 -0.0000 -11.5780 -15.2606 28.0612 -31.7714 -0.0000 -19.0264 16.2693 -1.6439 -0.4797 -16.5148 0.2799 -2.3829 -0.0000 -0.0000 -7.4584 -12.0969 12.7491 0.5262 -0.0000 -0.0000 -2.0516 13.4173 -1.8392 -3.4692 0.0000 0.0000 -5.0733 12.2865 0.4516 4.3450 0.0000 -0.0000 -6.8369
 9.3817 -0.7516 36.2674 88.2153 -1.0943 0.6312 1.0731 -0.3158 -0.3087 1.0965 -0.2211 -0.3079 1.1114 0.2948 0.0341 1.1114 0.2948 0.0341 -4.4654 -2.2022 9.8816 -4.5269 0.0028 2.2371 -4.8000 4.3515 -8.3412 -4.0845 -2.8778 0.0000 8.5205 20.9498 40.9787 36.3797 -0.0000 -17.7973 -16.3655 3.4708 -1.0185 -1.5046 -1.5126 -0.0000 -11.5629 -15.2364 28.0510 -31.8119 -0.0000 -19.0388 16.3310 -1.7061 -0.4998 -16.4633 0.2691 -2.4624 0.0000 0.0000 -7.4377 -12.1164 12.7865 0.5801 -0.0000 -0.0000 -2.0567 13.4688 -1.8121 -3.5158 0.0000 -0.0000 -5.1259 12.2568 0.4194 4.4312 -0.0000 -0.0000 -6.8314
 9.3269 -0.7580 36.2634 88.2022 -1.0925 0.6415 1.0803 -0.2905 -0.2725 1.1015 -0.1952 -0.2717 1.1141 0.2878 0.0097 1.1141 0.2878 0.0097 -4.4405 -2.2262 9.8924 -4.4993 -0.0106 2.2630 -4.7725 4.3451 -8.2937 -4.0915 -2.9181 -0.0000 8.5054 20.9343 40.9223 36.3879 0.0000 -17.7217 -16.3788 3.4568 -1.0153 -1.5466 -1.5308 -0.0000 -11.4685 -15.2327 28.0392 -31.8543 -0.0000 -19.1273 16.2565 -1.6951 -0.4942 -16.4935 0.2187 -2.5510 0.0000 0.0000 -7.4466 -12.0618 12.8460 0.6520 0.0000 0.0000 -2.0829 13.5030 -1.8001 -3.6291 0.0000 0.0000 -5.1154 12.2377 0.3811 4.5075 -0.0000 0.0000 -6.8667
 9.2699 -0.7640 36.2592 88.1969 -1.0957 0.6481 1.0852 -0.2576 -0.2261 1.1035 -0.1620 -0.2253 1.1133 0.2720 -0.0237 1.1133 0.2720 -0.0237 -4.4286 -2.2385 9.8863 -4.4853 -0.0231 2.2867 -4.7569 4.3288 -8.2286 -4.0907 -2.9479 0.0000 8.5035 20.9222 40.9140 36.3667 -0.0000 -17.7148 -16.3649 3.4267 -1.0055 -1.5492 -1.5338 -0.0000 -11.4537 -15.2341 28.0076 -31.8515 -0.0000 -19.1495 16.3001 -1.7079 -0.4993 -16.5329 0.1742 -2.6596 0.0000 0.0000 -7.4273 -11.9874 12.8758 0.7119 0.0000 0.0000 -2.0983 13.5314 -1.7813 -3.7134 0.0000 0.0000 -5.1605 12.2146 0.3482 4.6074 0.0000 0.0000 -6.8594
 9.2163 -0.7672 36.2551 88.2093 -1.1107 0.6548 1.0835 -0.2209 -0.1967 1.0986 -0.1256 -0.1958 1.1052 0.2593 -0.0442 1.1052 0.2593 -0.0442 -4.4223 -2.2762 9.8914 -4.4760 -0.0402 2.3162 -4.7486 4.3377 -8.1654 -4.0385 -2.9648 -0.0000 8.4365 20.9102 40.9644 36.3825 0.0000 -17.7379 -16.3483 3.4655 -1.0158 -1.5194 -1.5232 -0.0000 -11.5008 -15.2789 28.0159 -31.8137 0.0000 -18.9643 16.3993 -1.6326 -0.4804 -16.5697 0.1456 -2.7741 0.0000 0.0000 -7.3901 -11.9581 12.9602 0.7558 -0.0000 -0.0000 -2.1212 13.5729 -1.7471 -3.7261 0.0000 -0.0000 -5.3298 12.1671 0.3010 4.7581 -0.0000 -0.0000 -6.8972
 9.1583 -0.7688 36.2507 88.1794 -1.1199 0.6709 1.0905 -0.1902 -0.1645 1.1029 -0.0945 -0.1636 1.1068 0.2507 -0.0687 1.1068 0.2507 -0.0687 -4.4053 -2.3098 9.9273 -4.4554 -0.0564 2.3449 -4.7304 4.3399 -8.1461 -3.9846 -2.9824 0.0000 8.3754 20.9047 40.9712 36.4038 0.0000 -17.7797 -16.3356 3.4573 -1.0126 -1.5226 -1.4929 0.0000 -11.4654 -15.3718 28.0226 -31.8127 0.0000 -18.9602 16.3860 -1.6552 -0.4866 -16.5703 0.1127 -2.8833 0.0000 0.0000 -7.3849 -11.9119 13.0015 0.8117 -0.0000 0.0000 -2.1559 13.6318 -1.7141 -3.7826 0.0000 0.0000 -5.4445 12.1402 0.2729 4.8738 0.0000 0.0000 -6.9086
 9.1018 -0.7692 36.2471 88.1322 -1.1296 0.6671 1.0998 -0.1616 -0.1157 1.1097 -0.0652 -0.1148 1.1109 0.2344 -0.1107 1.1109 0.2344 -0.1107 -4.3750 -2.3288 9.9955 -4.4242 -0.0499 2.3902 -4.7004 4.3723 -8.1316 -3.9540 -3.0027 -0.0000 8.3944 20.9510 41.0608 36.3669 0.0000 -17.9733 -16.2483 3.4259 -0.9978 -1.5461 -1.4500 -0.0000 -11.3815 -15.4614 28.0879 -31.8297 0.0000 -19.0522 16.3643 -1.6829 -0.4941 -16.5705 0.0859 -2.9791 -0.0000 0.0000 -7.3617 -11.8492 13.0633 0.8565 -0.0000 -0.0000 -2.1815 13.6391 -1.6908 -3.8380 -0.0000 -0.0000 -5.5186 12.1866 0.2354 4.9706 -0.0000 -0.0000 -6.9120
 9.0436 -0.7681 36.2442 88.0609 -1.1436 0.6418 1.1108 -0.1385 -0.0537 1.1187 -0.0411 -0.0527 1.1177 0.2268 -0.1583 1.1177 0.2268 -0.1583 -4.3429 -2.3177 10.0621 -4.3907 -0.0452 2.4550 -4.6634 4.3586 -8.0682 -3.9128 -3.0201 0.0000 8.3926 20.9698 41.0581 36.3765 0.0000 -17.9291 -16.3229 3.4611 -1.0129 -1.5134 -1.3978 -0.0000 -11.3611 -15.5679 28.1943 -31.8094 0.0000 -19.1613 16.3157 -1.6988 -0.4972 -16.5936 0.0684 -3.0758 0.0000 0.0000 -7.3018 -11.7313 13.0660 0.8830 0.0000 0.0000 -2.1855 13.6909 -1.6605 -3.9147 -0.0000 0.0000 -5.5133 12.2019 0.1880 5.0349 0.0000 0.0000 -6.8948
 8.9883 -0.7652 36.2412 88.0193 -1.1610 0.6211 1.1196 -0.1208 0.0007 1.1259 -0.0228 0.0017 1.1231 0.2340 -0.2052 1.1231 0.2340 -0.2052 -4.3229 -2.3122 10.1257 -4.3659 -0.0636 2.5292 -4.6344 4.3009 -7.9782 -3.8750 -3.0605 -0.0000 8.3749 21.0047 41.0791 36.3551 -0.0000 -17.9293 -16.2091 3.4800 -1.0109 -1.5749 -1.3678 0.0000 -11.2338 -15.6349 28.1425 -31.8211 0.0000 -19.1357 16.3445 -1.7595 -0.5159 -16.6066 0.0589 -3.1964 -0.0000 -0.0000 -7.1982 -11.6889 13.1022 0.8896 -0.0000 -0.0000 -2.2174 13.6857 -1.6280 -3.9754 0.0000 -0.0000 -5.5345 12.2470 0.1525 5.1181 0.0000 0.0000 -6.9232
